<?xml version="1.0" standalone="no"?>
<!DOCTYPE svg PUBLIC "-//W3C//DTD SVG 20010904//EN"
 "http://www.w3.org/TR/2001/REC-SVG-20010904/DTD/svg10.dtd">
<svg version="1.0" xmlns="http://www.w3.org/2000/svg"
 width="460.000000pt" height="460.000000pt" viewBox="0 0 460.000000 460.000000"
 preserveAspectRatio="xMidYMid meet">
<metadata>
Created by potrace 1.14, written by Peter Selinger 2001-2017
</metadata>
<g transform="translate(0.000000,460.000000) scale(0.100000,-0.100000)"
fill="#000000" stroke="none">
<path d="M3700 4590 c0 -5 4 -10 9 -10 5 0 12 -11 15 -25 4 -14 11 -25 16 -25
6 0 10 -5 10 -11 0 -6 7 -17 15 -25 8 -8 20 -23 27 -32 20 -27 83 -72 101 -72
10 0 17 -5 17 -12 0 -8 4 -8 14 2 21 22 56 88 56 105 0 8 5 15 10 15 6 0 10 6
10 13 0 8 8 24 19 35 17 20 28 22 143 22 131 0 188 6 188 21 0 5 -119 9 -265
9 -240 0 -297 -5 -249 -24 9 -3 33 -6 55 -6 37 0 39 -2 39 -30 0 -16 -4 -30
-10 -30 -5 0 -10 -8 -10 -18 0 -49 -92 9 -119 76 -12 28 -18 32 -52 32 -22 0
-39 -4 -39 -10z"/>
<path d="M4390 4585 c0 -25 -79 -110 -112 -121 -10 -3 -18 -9 -18 -13 0 -5
-32 -18 -71 -31 -58 -18 -83 -21 -138 -15 -57 6 -69 4 -74 -9 -10 -26 3 -46
32 -47 79 -3 196 4 199 12 2 5 17 9 33 9 16 0 29 5 29 10 0 6 6 10 13 10 8 0
24 11 37 25 13 14 28 25 33 25 13 0 67 62 67 78 0 6 5 12 10 12 6 0 10 7 10
15 0 8 5 15 10 15 6 0 10 9 10 20 0 16 -7 20 -35 20 -24 0 -35 -5 -35 -15z"/>
<path d="M1678 4523 l-3 -58 -127 -3 c-71 -1 -128 -4 -129 -5 0 -1 -3 -56 -6
-122 -3 -66 -6 -121 -7 -122 0 0 -26 -3 -56 -5 l-55 -4 -3 -137 -3 -137 60 0
c48 0 60 -3 63 -17 2 -9 1 -179 -2 -377 l-5 -361 -57 -3 -58 -3 0 -64 0 -65
54 0 c30 0 58 -5 61 -10 4 -6 6 -199 7 -430 0 -230 2 -428 5 -439 5 -18 13
-21 64 -21 l59 0 0 -125 0 -125 -60 0 -60 0 0 54 c0 37 -4 56 -14 59 -20 8
-303 9 -342 1 -34 -6 -34 -7 -34 -60 l0 -54 -49 0 c-86 0 -81 12 -81 -200 l0
-187 38 -7 c20 -3 49 -6 65 -6 26 0 27 -2 27 -49 0 -76 4 -81 66 -81 l54 0 0
-60 0 -60 265 0 265 0 0 60 0 61 58 -3 57 -3 0 -120 0 -120 -57 -3 -58 -3 0
-59 0 -59 -67 -3 -68 -3 -3 -67 -3 -68 -254 0 -255 0 0 -60 0 -60 -34 0 c-18
0 -48 -3 -65 -6 -30 -6 -31 -8 -31 -65 l0 -58 63 -3 62 -3 5 -65 5 -65 58 -3
57 -3 0 -53 c0 -62 5 -66 80 -66 55 0 60 -7 60 -81 l0 -48 -127 -3 -128 -3 -3
-44 c-6 -81 1 -91 63 -91 l55 0 0 -35 0 -35 1100 0 1100 0 0 35 0 35 60 0 60
0 0 70 0 70 -125 0 -125 0 0 65 0 65 55 0 c63 0 75 13 75 79 l0 41 60 0 60 0
0 70 0 70 -59 0 c-65 0 -68 3 -66 68 1 44 -9 53 -60 57 -70 5 -65 0 -65 65 l0
60 59 0 58 0 6 59 c3 33 8 64 12 70 3 6 31 11 61 11 l54 0 0 55 0 55 38 1 c20
1 44 3 52 4 8 1 23 3 33 4 15 1 17 17 17 190 0 214 5 201 -86 201 l-54 0 0 65
0 65 -60 0 -59 0 -7 60 -7 60 -58 0 -59 0 0 64 c0 71 -5 76 -86 76 -48 0 -54
9 -54 77 l0 46 -43 -6 c-28 -4 -48 -2 -55 5 -8 8 -12 55 -12 135 l0 123 55 0
55 0 1 98 c2 126 2 124 14 144 9 15 30 18 130 20 l120 3 -3 43 c-6 67 4 72
130 72 81 0 113 4 124 14 12 12 14 111 14 639 l0 625 -22 6 c-13 3 -68 6 -124
6 -124 0 -125 1 -122 141 3 104 -8 135 -45 125 -11 -3 -33 -2 -48 1 -27 5 -29
8 -29 58 l0 52 -37 7 c-21 3 -50 6 -64 6 -22 0 -28 6 -33 31 -3 17 -6 47 -6
65 l0 34 -125 0 -125 0 0 60 0 60 -575 0 -574 0 -3 -57z m1014 -715 l3 -123
68 -3 67 -3 -2 -192 -3 -192 -67 -3 -68 -3 0 -59 0 -60 -559 0 c-308 0 -566 3
-575 6 -24 9 -24 239 0 248 9 3 67 6 130 6 l114 0 0 49 c0 82 2 81 -120 81
-60 0 -115 3 -124 6 -14 5 -16 31 -16 185 l0 179 575 0 574 0 3 -122z m528
-887 c0 -277 7 -253 -71 -266 -57 -10 -63 5 -60 152 1 69 -1 150 -5 179 l-6
54 -54 0 -54 0 0 65 0 65 125 0 125 0 0 -249z m-1292 -14 l3 -128 62 3 62 3
-3 33 c-2 18 1 32 7 32 6 0 11 16 11 35 l0 35 61 0 61 0 -2 43 c-5 85 -30 77
250 77 l250 0 0 -124 c0 -141 -3 -136 86 -136 l54 0 0 -65 0 -65 -125 0 -125
0 0 -107 c0 -60 -3 -118 -6 -131 l-6 -22 -317 2 -316 3 -3 68 -3 67 -65 0 -65
0 3 58 3 57 63 3 62 3 0 64 0 65 -64 0 c-72 0 -77 -5 -69 -68 7 -53 -6 -59
-130 -61 -73 0 -102 3 -113 13 -20 21 -20 221 0 242 9 9 35 14 70 14 l56 0 0
60 0 61 123 -3 122 -3 3 -128z m-137 -387 c1 -5 1 -30 1 -55 0 -79 3 -75 -57
-75 l-55 0 0 70 0 70 55 0 c30 0 55 -4 56 -10z m1039 -646 l0 -125 68 3 67 3
3 63 3 62 54 0 55 0 0 -65 0 -65 70 0 70 0 0 -60 0 -60 -124 0 c-140 0 -136 2
-136 -81 l0 -49 -65 0 -65 0 0 -70 0 -70 56 0 c70 0 84 13 84 79 l0 50 123 3
122 3 5 65 5 65 49 3 c59 4 66 -4 66 -74 0 -59 6 -64 81 -64 l49 0 0 -190 0
-190 -49 0 c-76 0 -81 -4 -81 -66 l0 -54 -128 0 -128 0 1 58 0 57 -127 3 -128
3 0 124 0 125 -59 0 c-33 0 -62 -4 -65 -9 -3 -4 -6 -88 -7 -185 l-2 -176 -449
0 -448 0 0 60 0 60 65 0 65 0 -2 192 c-3 185 -4 193 -23 194 -11 0 -39 1 -62
2 l-43 2 0 65 0 65 -60 0 c-41 0 -60 -4 -61 -12 0 -7 0 -64 1 -125 l1 -113
-33 0 c-18 -1 -76 -1 -128 -2 l-95 -1 -3 57 -3 56 60 0 60 0 3 128 3 127 123
3 c128 3 131 2 122 -43 -1 -5 1 -24 5 -42 l6 -33 319 0 320 0 0 60 0 60 130 0
c97 0 130 -3 131 -12 0 -7 1 -33 2 -58 l2 -45 63 -3 62 -3 0 61 0 60 -60 0
-60 0 0 124 0 125 53 3 c28 2 55 2 60 0 4 -2 7 -59 7 -128z m-1420 -184 l0
-190 -60 0 -60 0 0 -60 0 -60 -38 0 c-21 0 -43 -5 -50 -12 -21 -21 -52 28 -52
83 l0 48 -57 3 -58 3 -3 174 c-1 96 0 181 2 188 4 10 47 13 191 13 l185 0 0
-190z m1668 -772 l3 -68 -54 0 -55 0 -4 42 c-2 23 -2 55 0 71 4 27 6 28 56 25
l51 -3 3 -67z m-1290 -10 l3 -58 459 0 459 0 3 58 3 57 55 0 55 0 3 -57 3 -58
59 0 58 0 -1 -125 -1 -125 -58 0 -58 0 0 -59 0 -60 -125 -3 -125 -3 0 63 0 62
-59 0 c-58 0 -60 1 -66 30 -4 16 -3 35 1 41 3 6 0 15 -7 20 -10 6 -10 9 -2 9
9 0 7 7 -4 20 -16 19 -30 20 -189 20 -95 0 -179 -3 -188 -6 -12 -5 -16 -21
-16 -70 l0 -64 -60 0 -60 0 0 -60 0 -60 -51 0 c-56 0 -88 22 -67 47 5 7 7 26
3 43 -6 29 -9 30 -59 30 -29 0 -57 5 -64 12 -7 7 -12 35 -12 64 0 58 -8 64
-87 64 -49 0 -61 20 -43 75 11 35 12 35 71 35 l59 0 0 59 0 58 53 -1 52 -1 3
-57z m-248 -248 l0 -60 60 0 c70 0 80 -11 80 -89 l0 -51 55 0 c60 0 57 4 58
-75 l0 -40 -124 0 -124 0 -3 58 -3 57 -54 0 c-61 0 -62 2 -67 90 l-3 45 -62 3
-63 3 0 59 0 60 125 0 125 0 0 -60z m1664 54 c13 -5 16 -25 16 -116 0 -131 -4
-138 -84 -138 l-56 0 0 -60 0 -60 -54 0 c-59 0 -66 -7 -66 -65 0 -65 0 -65
-132 -65 l-119 0 3 62 3 63 55 1 55 1 3 61 3 62 63 0 c73 0 76 3 76 86 l0 54
54 0 c52 0 54 1 60 31 3 17 6 42 6 54 0 13 6 26 13 28 18 8 83 8 101 1z m-764
-180 c0 -41 4 -63 10 -59 6 3 10 1 10 -4 0 -7 23 -11 55 -11 l55 0 0 -60 0
-60 -320 0 -320 0 0 60 0 60 60 0 c47 0 60 3 60 15 0 8 5 15 11 15 5 0 8 4 5
9 -3 5 -3 30 0 55 l7 46 183 0 184 0 0 -66z"/>
<path d="M1930 3495 l0 -65 255 0 255 0 0 65 0 65 -255 0 -255 0 0 -65z"/>
</g>
</svg>
