<?xml version="1.0" standalone="no"?>
<!DOCTYPE svg PUBLIC "-//W3C//DTD SVG 20010904//EN"
 "http://www.w3.org/TR/2001/REC-SVG-20010904/DTD/svg10.dtd">
<svg version="1.0" xmlns="http://www.w3.org/2000/svg"
 width="225.000000pt" height="225.000000pt" viewBox="0 0 225.000000 225.000000"
 preserveAspectRatio="xMidYMid meet">
<metadata>
Created by potrace 1.14, written by Peter Selinger 2001-2017
</metadata>
<g transform="translate(0.000000,225.000000) scale(0.100000,-0.100000)"
fill="#000000" stroke="none">
<path d="M1013 2051 c-82 -14 -192 -50 -268 -89 -94 -49 -245 -199 -298 -297
-69 -126 -90 -203 -95 -350 -4 -146 8 -219 57 -336 l29 -68 -94 -82 c-103 -88
-114 -103 -114 -147 0 -81 226 -290 417 -386 120 -60 317 -106 453 -106 293 0
568 106 772 298 105 99 148 157 148 199 0 38 -25 67 -153 179 l-57 51 25 55
c82 180 87 412 12 598 -114 281 -384 474 -680 485 -56 2 -125 0 -154 -4z m277
-137 c216 -55 399 -235 466 -459 25 -82 25 -258 0 -340 -74 -248 -272 -427
-521 -472 -278 -51 -568 96 -695 351 -54 110 -73 204 -67 326 8 166 69 301
187 420 168 167 401 232 630 174z m371 -181 c13 -16 12 -17 -3 -4 -17 13 -22
21 -14 21 2 0 10 -8 17 -17z m-1224 -335 c-3 -8 -6 -5 -6 6 -1 11 2 17 5 13 3
-3 4 -12 1 -19z m-10 -145 c-2 -21 -4 -6 -4 32 0 39 2 55 4 38 2 -18 2 -50 0
-70z m93 -377 c0 -2 -8 -10 -17 -17 -16 -13 -17 -12 -4 4 13 16 21 21 21 13z
m286 -203 c102 -53 192 -75 314 -75 203 -1 347 57 492 200 l67 65 100 -87 c56
-49 101 -93 101 -99 0 -18 -140 -150 -209 -196 -323 -219 -749 -221 -1082 -6
-76 49 -224 187 -218 202 2 6 48 49 102 97 l99 87 76 -73 c51 -48 105 -88 158
-115z m-465 -30 c13 -16 12 -17 -3 -4 -10 7 -18 15 -18 17 0 8 8 3 21 -13z
m866 -369 c-3 -3 -12 -4 -19 -1 -8 3 -5 6 6 6 11 1 17 -2 13 -5z"/>
<path d="M962 1880 c-110 -29 -187 -75 -273 -160 -83 -83 -119 -139 -155 -247
-50 -150 -39 -312 33 -463 28 -59 54 -93 122 -160 132 -131 250 -180 431 -180
185 0 314 53 440 180 79 78 138 174 160 260 6 25 13 53 16 63 5 15 -4 17 -90
17 -75 0 -96 -3 -96 -14 0 -7 -16 -45 -35 -83 -44 -88 -121 -163 -212 -206
-64 -30 -75 -32 -178 -32 -106 0 -113 1 -185 36 -161 78 -250 218 -250 394 0
384 451 575 737 312 52 -48 80 -92 109 -171 l22 -61 91 -3 c103 -3 99 -7 76
78 -52 194 -204 359 -395 427 -103 36 -262 42 -368 13z"/>
<path d="M1006 1660 c-112 -36 -192 -107 -244 -218 -24 -50 -27 -69 -27 -162
0 -96 3 -110 29 -165 146 -297 574 -298 715 -3 17 36 31 69 31 72 0 3 -37 6
-83 6 l-83 0 -32 -46 c-22 -31 -49 -53 -85 -69 -160 -75 -337 34 -337 208 0
68 16 110 59 159 100 114 293 97 374 -33 l30 -49 78 0 c91 0 92 1 55 84 -80
181 -292 276 -480 216z"/>
<path d="M491 736 c-53 -53 -63 -68 -58 -88 4 -14 19 -30 33 -37 25 -11 30 -9
52 13 22 21 23 27 12 41 -12 14 -15 14 -37 -6 -12 -13 -23 -18 -23 -12 0 6 25
32 55 58 30 25 55 43 55 38 0 -5 -5 -14 -10 -19 -8 -8 -6 -15 6 -25 14 -12 19
-10 35 10 11 13 19 27 19 33 0 14 -47 58 -62 58 -8 0 -42 -29 -77 -64z"/>
<path d="M1640 769 l-35 -29 77 -77 c67 -67 79 -75 93 -63 14 12 13 16 -11 41
-25 26 -25 28 -9 52 16 25 15 27 -21 66 -20 23 -41 41 -48 41 -6 -1 -27 -14
-46 -31z m60 -44 c13 -14 19 -25 14 -25 -8 1 -50 50 -41 50 2 0 14 -11 27 -25z"/>
<path d="M585 640 c-75 -75 -77 -78 -55 -90 18 -9 25 -8 41 6 24 21 34 13 19
-16 -12 -22 0 -50 21 -50 13 0 101 180 95 195 -3 8 -13 18 -24 24 -16 8 -30
-2 -97 -69z m49 -25 c-4 -8 -11 -15 -16 -15 -6 0 -5 6 2 15 7 8 14 15 16 15 2
0 1 -7 -2 -15z"/>
<path d="M1543 689 l-32 -20 62 -85 c62 -85 73 -94 95 -72 8 8 4 21 -20 50
-17 21 -28 41 -25 44 3 3 18 -11 34 -30 29 -37 39 -42 62 -27 11 7 7 17 -19
50 -18 23 -39 41 -47 41 -7 0 -13 10 -13 23 0 49 -43 61 -97 26z m67 -52 c0
-6 -9 -2 -20 8 -11 10 -20 23 -20 28 0 6 9 2 20 -8 11 -10 20 -23 20 -28z"/>
<path d="M692 565 c-40 -81 -45 -97 -32 -105 22 -14 24 -13 44 24 16 30 22 33
41 26 27 -10 46 2 69 45 15 29 16 29 10 4 -3 -16 1 -40 10 -57 19 -36 21 -68
5 -78 -8 -4 -9 3 -5 23 6 25 3 31 -13 36 -15 4 -22 -2 -30 -24 -13 -39 -6 -55
31 -68 63 -22 91 28 62 110 -15 40 -16 51 -5 62 10 10 11 7 6 -14 -5 -20 -2
-28 11 -33 36 -14 48 56 13 75 -12 6 -34 9 -50 7 -17 -3 -30 1 -33 9 -5 13
-64 53 -79 53 -4 0 -28 -43 -55 -95z m77 11 c-7 -14 -16 -26 -21 -26 -5 0 -1
14 7 31 20 37 31 33 14 -5z"/>
<path d="M1452 634 c-30 -21 -28 -36 16 -121 39 -76 57 -87 101 -63 33 17 31
40 -9 120 -43 86 -61 97 -108 64z m66 -84 c19 -33 32 -66 29 -73 -2 -6 -20 21
-41 61 -44 87 -34 97 12 12z"/>
<path d="M1358 598 c-40 -14 -41 -35 -9 -123 26 -73 31 -80 57 -83 46 -5 68
18 60 61 -7 38 -12 42 -40 31 -12 -4 -13 -11 -5 -31 5 -14 7 -28 5 -31 -3 -3
-8 1 -10 9 -3 8 -15 40 -27 72 -11 32 -18 61 -15 65 4 3 9 -4 13 -16 6 -24 11
-26 33 -12 13 8 13 12 0 36 -18 32 -26 35 -62 22z"/>
<path d="M947 573 c-12 -20 -30 -194 -21 -203 15 -15 67 -22 83 -11 8 5 22 50
32 103 l17 93 1 -107 1 -108 45 0 c46 0 62 17 25 27 -18 5 -20 14 -20 98 l0
93 -50 4 c-56 3 -49 14 -71 -114 -6 -38 -14 -66 -19 -63 -4 2 0 43 8 91 12 73
12 88 1 95 -17 11 -26 11 -32 2z"/>
<path d="M1196 563 l-38 -4 6 -77 c12 -132 16 -144 40 -138 11 3 31 6 44 6 13
0 22 6 22 15 0 9 -9 15 -25 15 -22 0 -25 4 -25 35 0 24 5 35 15 35 8 0 15 7
15 15 0 8 -9 15 -20 15 -16 0 -20 7 -20 30 0 23 4 30 20 30 11 0 20 7 20 15 0
8 -3 14 -7 13 -5 -1 -25 -3 -47 -5z"/>
</g>
</svg>
